<?xml version="1.0" encoding="iso-8859-1"?>
<!-- Generator: Adobe Illustrator 19.1.0, SVG Export Plug-In . SVG Version: 6.00 Build 0)  -->
<svg version="1.1" id="Capa_1" xmlns="http://www.w3.org/2000/svg" xmlns:xlink="http://www.w3.org/1999/xlink" x="0px" y="0px"
	 viewBox="0 0 471.12 471.12" style="enable-background:new 0 0 471.12 471.12;" xml:space="preserve">
<g>
	<path style="fill:#994C0D;" d="M370.41,100.281c0,4.34-1.17,8.7-3.54,12.59l-12,19.73l-7.39-16.58c-4.26-9.57-10.6-17.7-18.3-24
		v-0.01l2.04-3.8c6.82-12.75,24.4-14.52,33.63-3.37C368.53,89.291,370.41,94.771,370.41,100.281z"/>
	<path style="fill:#994C0D;" d="M141.94,92.011v0.01c-7.7,6.3-14.04,14.43-18.3,24l-7.39,16.58l-12-19.73
		c-2.37-3.89-3.54-8.25-3.54-12.59c0-5.51,1.88-10.99,5.56-15.44c9.23-11.15,26.81-9.38,33.63,3.37L141.94,92.011z"/>
	<path style="fill:#333333;" d="M187.24,181.591v14h-14c-7.73,0-14-6.27-14-14c0-3.87,1.57-7.37,4.1-9.9c2.54-2.54,6.04-4.1,9.9-4.1
		s7.36,1.56,9.9,4.1C185.67,174.221,187.24,177.721,187.24,181.591z"/>
	<path style="fill:#333333;" d="M307.78,171.691c2.53,2.53,4.1,6.03,4.1,9.9c0,7.73-6.27,14-14,14h-14v-14c0-3.87,1.57-7.37,4.1-9.9
		c2.54-2.54,6.04-4.1,9.9-4.1C301.74,167.591,305.24,169.151,307.78,171.691z"/>
	<path style="fill:#D16A0D;" d="M316.17,353.211c2.02,1.4,4.07,2.7,6.17,3.88c-23.02,20.62-53.44,33.15-86.78,33.15
		s-63.76-12.53-86.78-33.15c2.1-1.18,4.15-2.48,6.17-3.88l53.44-37.19l6,32.36h21.17h21.17l6-32.36L316.17,353.211z"/>
	<path style="fill:#FFE066;" d="M141.94,92.011c14.5-11.87,33.82-17.32,53.21-13.81c13.36,2.41,26.89,3.61,40.41,3.61
		c13.52,0,27.05-1.2,40.41-3.61c19.39-3.51,38.71,1.94,53.21,13.81v0.01c7.7,6.3,14.04,14.43,18.3,24l7.39,16.58l19.26,43.23
		c6.17,13.84,14.4,26.66,24.43,38.03l20.79,23.56c6.64,7.52,11.6,16.04,14.87,25.05c3.1,8.58,4.67,17.6,4.67,26.65
		c0,7.79-1.16,15.6-3.51,23.15c-2.21,7.12-5.47,14-9.79,20.43c-5.78,8.59-12.96,15.66-21.03,21.11
		c-24.03,16.24-55.94,18.18-82.22,3.28c-2.1-1.18-4.15-2.48-6.17-3.88l-53.44-37.19l-0.78-0.55c-10.49-7.3-17.99-18.16-21.09-30.57
		l-5.3-21.2l-5.3,21.2c-3.1,12.41-10.6,23.27-21.09,30.57l-0.78,0.55l-53.44,37.19c-2.02,1.4-4.07,2.7-6.17,3.88
		c-12.04,6.83-25.26,10.12-38.37,10.12c-15.5,0-30.83-4.6-43.85-13.4c-8.07-5.45-15.25-12.52-21.03-21.11
		c-4.32-6.43-7.58-13.31-9.79-20.43c-5.07-16.31-4.62-33.83,1.16-49.8c3.27-9.01,8.23-17.53,14.87-25.05l20.79-23.56
		c10.03-11.37,18.26-24.19,24.43-38.03l19.26-43.23l7.39-16.58c4.26-9.57,10.6-17.7,18.3-24V92.011z M311.88,181.591
		c0-3.87-1.57-7.37-4.1-9.9c-2.54-2.54-6.04-4.1-9.9-4.1c-3.86,0-7.36,1.56-9.9,4.1c-2.53,2.53-4.1,6.03-4.1,9.9v14h14
		C305.61,195.591,311.88,189.321,311.88,181.591z M187.24,195.591v-14c0-3.87-1.57-7.37-4.1-9.9c-2.54-2.54-6.04-4.1-9.9-4.1
		s-7.36,1.56-9.9,4.1c-2.53,2.53-4.1,6.03-4.1,9.9c0,7.73,6.27,14,14,14H187.24z"/>
	<g>
		<path style="fill:#D16A0D;" d="M147.6,166.251c-0.021,0-0.043,0-0.064,0c-1.108-0.018-2.158-0.494-2.902-1.316l-19-21
			c-1.482-1.638-1.355-4.167,0.283-5.65c1.638-1.483,4.167-1.355,5.65,0.283l16.258,17.969c8.554-7.389,19.481-11.385,30.771-11.313
			l-25.783-37.194c-1.258-1.816-0.807-4.308,1.009-5.566c1.816-1.258,4.308-0.807,5.566,1.009l30.5,44
			c0.88,1.27,0.95,2.934,0.18,4.273c-0.77,1.34-2.248,2.115-3.784,1.993l-4.91-0.39c-11.577-0.93-22.835,3.329-30.895,11.68
			C149.724,165.81,148.684,166.251,147.6,166.251z"/>
		<path style="fill:#D16A0D;" d="M157.522,158.071c-1.179,0-2.347-0.519-3.137-1.515l-14.92-18.82
			c-1.373-1.731-1.082-4.247,0.649-5.619c1.731-1.372,4.247-1.082,5.619,0.65l14.92,18.82c1.372,1.731,1.081,4.247-0.65,5.619
			C159.27,157.788,158.393,158.071,157.522,158.071z"/>
		<path style="fill:#D16A0D;" d="M170.803,152.951c-1.18,0-2.348-0.52-3.138-1.516l-14.91-18.82
			c-1.372-1.731-1.08-4.247,0.651-5.619c1.731-1.372,4.247-1.08,5.619,0.651l14.91,18.82c1.372,1.731,1.08,4.247-0.651,5.619
			C172.549,152.668,171.673,152.951,170.803,152.951z"/>
		<path style="fill:#D16A0D;" d="M323.52,166.251c-1.085,0-2.124-0.44-2.878-1.222c-8.06-8.351-19.32-12.61-30.892-11.68
			l-4.914,0.39c-1.533,0.122-3.013-0.654-3.784-1.993c-0.77-1.34-0.701-3.003,0.18-4.273l30.5-44
			c1.258-1.816,3.75-2.268,5.566-1.009c1.815,1.259,2.267,3.75,1.009,5.566l-25.782,37.194c11.331-0.094,22.216,3.923,30.771,11.313
			l16.258-17.969c1.482-1.638,4.011-1.765,5.65-0.283c1.638,1.482,1.765,4.012,0.283,5.65l-19,21
			c-0.744,0.822-1.794,1.298-2.902,1.316C323.563,166.25,323.542,166.251,323.52,166.251z"/>
		<path style="fill:#D16A0D;" d="M313.598,158.071c-0.871,0-1.747-0.283-2.482-0.866c-1.731-1.372-2.022-3.888-0.649-5.619
			l14.92-18.82c1.372-1.731,3.888-2.022,5.619-0.65c1.731,1.372,2.022,3.888,0.65,5.619l-14.92,18.82
			C315.945,157.552,314.777,158.071,313.598,158.071z"/>
		<path style="fill:#D16A0D;" d="M300.317,152.951c-0.871,0-1.746-0.283-2.481-0.865c-1.731-1.372-2.023-3.888-0.651-5.619
			l14.91-18.82c1.373-1.732,3.89-2.022,5.619-0.651c1.731,1.372,2.023,3.888,0.651,5.619l-14.91,18.82
			C302.665,152.431,301.497,152.951,300.317,152.951z"/>
		<path style="fill:#D16A0D;" d="M235.56,193.251c-5.403,0-10.573-2.02-14.559-5.686c-3.954-3.638-6.406-8.612-6.904-14.005
			c-3.4-37.321-29.95-72.531-30.217-72.882c-1.339-1.756-1.001-4.266,0.754-5.606c1.756-1.339,4.265-1.003,5.605,0.752
			c1.15,1.506,28.211,37.352,31.824,77.004c0.315,3.411,1.862,6.556,4.355,8.85c2.504,2.304,5.751,3.573,9.142,3.573
			c7.046,0,12.849-5.341,13.497-12.425c3.613-39.651,30.674-75.496,31.824-77.003c1.34-1.756,3.849-2.092,5.605-0.752
			c1.756,1.34,2.093,3.849,0.754,5.606c-0.268,0.351-26.817,35.562-30.217,72.877C255.996,184.783,246.768,193.251,235.56,193.251z"
			/>
		<path style="fill:#D16A0D;" d="M230.918,177.191c-2.165,0-3.944-1.728-3.997-3.904c-0.92-38.134-8.079-73.886-8.151-74.243
			c-0.439-2.165,0.961-4.276,3.126-4.714c2.166-0.44,4.276,0.961,4.714,3.126c0.074,0.363,7.371,36.775,8.309,75.638
			c0.053,2.208-1.694,4.042-3.902,4.095C230.983,177.19,230.951,177.191,230.918,177.191z"/>
		<path style="fill:#D16A0D;" d="M240.202,177.191c-0.033,0-0.065-0.001-0.099-0.001c-2.209-0.053-3.956-1.887-3.902-4.095
			c0.938-38.863,8.235-75.275,8.309-75.638c0.439-2.165,2.547-3.565,4.714-3.126c2.165,0.438,3.565,2.549,3.126,4.714
			c-0.072,0.357-7.231,36.109-8.151,74.243C244.146,175.462,242.366,177.191,240.202,177.191z"/>
		<path style="fill:#D16A0D;" d="M163.248,216.968c-7.936,0-15.641-2.891-21.656-8.232c-7.135-6.334-11.131-15.438-10.962-24.976
			l-0.001-0.439c0-11.551-8.194-21.682-19.484-24.088l-4.904-1.051c-2.16-0.463-3.536-2.589-3.073-4.749
			c0.463-2.16,2.589-3.536,4.749-3.073l4.9,1.05c14.954,3.187,25.811,16.608,25.811,31.911v0.51
			c-0.128,7.27,2.888,14.142,8.274,18.923c5.388,4.783,12.574,6.964,19.712,5.984l17.881-2.45c2.192-0.303,4.207,1.231,4.506,3.42
			c0.3,2.189-1.231,4.206-3.42,4.506l-17.88,2.45C166.217,216.868,164.729,216.968,163.248,216.968z"/>
		<path style="fill:#D16A0D;" d="M127.043,224.251c-1.198,0-2.382-0.535-3.17-1.557c-11.878-15.398-10.874-34.858-10.826-35.679
			c0.131-2.205,2.033-3.888,4.229-3.757c2.204,0.13,3.884,2.02,3.757,4.223c-0.013,0.248-0.813,17.38,9.174,30.327
			c1.35,1.749,1.025,4.261-0.724,5.61C128.755,223.979,127.896,224.251,127.043,224.251z"/>
		<path style="fill:#D16A0D;" d="M105.423,229.251c-1.246,0-2.473-0.58-3.254-1.669c-5.193-7.242-6.886-18.275-6.956-18.741
			c-0.326-2.185,1.181-4.221,3.366-4.546c2.181-0.324,4.218,1.179,4.545,3.362l0,0c0.015,0.096,1.489,9.607,5.545,15.263
			c1.288,1.795,0.876,4.294-0.919,5.582C107.045,229.007,106.23,229.251,105.423,229.251z"/>
		<path style="fill:#D16A0D;" d="M82.043,235.252c-1.467,0-2.88-0.81-3.581-2.212l-2-4c-0.988-1.976-0.187-4.379,1.789-5.366
			c1.975-0.988,4.379-0.187,5.367,1.789l2,4c0.988,1.976,0.187,4.379-1.788,5.366C83.255,235.115,82.644,235.252,82.043,235.252z"/>
		<path style="fill:#D16A0D;" d="M307.871,216.968c-1.48,0-2.968-0.101-4.455-0.305l-17.879-2.45c-2.189-0.3-3.72-2.317-3.42-4.506
			c0.299-2.189,2.317-3.722,4.506-3.42l17.88,2.45c7.136,0.979,14.325-1.201,19.713-5.984c5.386-4.781,8.402-11.653,8.274-18.853
			l0-0.581c0-15.303,10.857-28.724,25.816-31.912l4.896-1.049c2.166-0.463,4.287,0.913,4.749,3.073
			c0.463,2.16-0.913,4.286-3.073,4.749l-4.9,1.05c-11.294,2.407-19.488,12.538-19.488,24.089v0.51
			c0.168,9.468-3.828,18.572-10.963,24.906C323.513,214.076,315.807,216.968,307.871,216.968z"/>
		<path style="fill:#D16A0D;" d="M344.077,224.251c-0.853,0-1.712-0.272-2.44-0.833c-1.749-1.349-2.073-3.861-0.724-5.61
			c10.009-12.976,9.183-30.156,9.173-30.328c-0.122-2.203,1.563-4.092,3.765-4.218c2.205-0.128,4.092,1.551,4.222,3.754
			c0.048,0.821,1.052,20.281-10.826,35.679C346.459,223.715,345.275,224.251,344.077,224.251z"/>
		<path style="fill:#D16A0D;" d="M365.697,229.251c-0.807,0-1.621-0.243-2.328-0.75c-1.795-1.287-2.207-3.786-0.919-5.582
			c3.385-4.721,5.15-12.615,5.544-15.259c0.326-2.185,2.364-3.692,4.546-3.366c2.185,0.326,3.692,2.361,3.366,4.546
			c-0.069,0.466-1.762,11.499-6.956,18.741C368.169,228.671,366.942,229.251,365.697,229.251z"/>
		<path style="fill:#D16A0D;" d="M389.077,235.252c-0.602,0-1.211-0.136-1.786-0.423c-1.976-0.988-2.776-3.391-1.789-5.366l2-4
			c0.988-1.976,3.39-2.776,5.367-1.789c1.976,0.988,2.776,3.391,1.789,5.366l-2,4C391.957,234.441,390.544,235.252,389.077,235.252z
			"/>
	</g>
	<path style="fill:#FFE066;" d="M235.56,375.251c-0.07,0-0.14-0.002-0.209-0.005c-7.907-0.414-15.708-5.986-23.253-11.375
		c-7.091-5.066-14.425-10.305-17.79-7.718c-0.857,0.659-0.964,1.04-0.965,1.044c-0.084,1.73,6.618,6.569,14.273,9.535
		c2.06,0.798,3.082,3.115,2.285,5.175c-0.798,2.059-3.113,3.083-5.175,2.284c-4.228-1.638-18.116-7.622-19.297-15.826
		c-0.265-1.84-0.097-5.398,4.004-8.554c8.066-6.2,17.853,0.79,27.317,7.55c6.528,4.663,13.275,9.482,18.812,9.883
		c5.537-0.4,12.284-5.22,18.811-9.883c9.464-6.76,19.251-13.75,27.316-7.551c4.102,3.156,4.271,6.715,4.005,8.555
		c-1.182,8.204-15.069,14.188-19.297,15.826c-2.06,0.799-4.377-0.224-5.175-2.284c-0.798-2.059,0.224-4.375,2.283-5.174l0,0
		c8.974-3.489,14.342-8.159,14.274-9.539c0,0-0.108-0.381-0.966-1.042c-3.364-2.584-10.697,2.653-17.789,7.719
		c-7.544,5.389-15.346,10.961-23.253,11.375C235.7,375.249,235.63,375.251,235.56,375.251z"/>
	<path style="fill:none;stroke:#333333;stroke-width:12;stroke-linejoin:round;stroke-miterlimit:10;" d="M141.94,92.011l-2.04-3.8
		c-6.82-12.75-24.4-14.52-33.63-3.37c-3.68,4.45-5.56,9.93-5.56,15.44c0,4.34,1.17,8.7,3.54,12.59l12,19.73"/>
	<path style="fill:none;stroke:#333333;stroke-width:12;stroke-linejoin:round;stroke-miterlimit:10;" d="M329.18,92.021v-0.01
		l2.04-3.8c6.82-12.75,24.4-14.52,33.63-3.37c3.68,4.45,5.56,9.93,5.56,15.44c0,4.34-1.17,8.7-3.54,12.59l-12,19.73"/>
	<path style="fill:none;stroke:#333333;stroke-width:8;stroke-linecap:round;stroke-linejoin:round;stroke-miterlimit:10;" d="
		M248.28,227.651c-4.8,6.24-2.08,15.34,5.35,17.94l0.17,0.06c10.55,3.68,20.59-6.64,16.62-17.08c-4.55-11.97-6.81-24.53-6.81-37.06
		c0-16.06,3.71-32.07,11.06-46.73l32.41-64.66"/>
	<path style="fill:none;stroke:#333333;stroke-width:8;stroke-linecap:round;stroke-linejoin:round;stroke-miterlimit:10;" d="
		M222.84,227.651c4.8,6.24,2.08,15.34-5.35,17.94l-0.17,0.06c-10.55,3.68-20.59-6.64-16.62-17.08c4.55-11.97,6.81-24.53,6.81-37.06
		c0-16.06-3.71-32.07-11.06-46.73l-32.41-64.66"/>
	<path style="fill:#CCCCCC;" d="M262.73,316.021l-6,32.36h-21.17h-21.17l-6-32.36l0.78-0.55c10.49-7.3,17.99-18.16,21.09-30.57
		l5.3-21.2l5.3,21.2c3.1,12.41,10.6,23.27,21.09,30.57L262.73,316.021z"/>
	<path style="fill:none;stroke:#333333;stroke-width:12;stroke-linejoin:round;stroke-miterlimit:10;" d="M329.18,92.011
		c-14.5-11.87-33.82-17.32-53.21-13.81c-13.36,2.41-26.89,3.61-40.41,3.61c-13.52,0-27.05-1.2-40.41-3.61
		c-19.39-3.51-38.71,1.94-53.21,13.81v0.01c-7.7,6.3-14.04,14.43-18.3,24l-7.39,16.58l-19.26,43.23
		c-6.17,13.84-14.4,26.66-24.43,38.03l-20.79,23.56c-6.64,7.52-11.6,16.04-14.87,25.05c-5.78,15.97-6.23,33.49-1.16,49.8
		c2.21,7.12,5.47,14,9.79,20.43c5.78,8.59,12.96,15.66,21.03,21.11c13.02,8.8,28.35,13.4,43.85,13.4c13.11,0,26.33-3.29,38.37-10.12
		c2.1-1.18,4.15-2.48,6.17-3.88l53.44-37.19l0.78-0.55c10.49-7.3,17.99-18.16,21.09-30.57l5.3-21.2l5.3,21.2
		c3.1,12.41,10.6,23.27,21.09,30.57l0.78,0.55l53.44,37.19c2.02,1.4,4.07,2.7,6.17,3.88c26.28,14.9,58.19,12.96,82.22-3.28
		c8.07-5.45,15.25-12.52,21.03-21.11c4.32-6.43,7.58-13.31,9.79-20.43c2.35-7.55,3.51-15.36,3.51-23.15
		c0-9.05-1.57-18.07-4.67-26.65c-3.27-9.01-8.23-17.53-14.87-25.05l-20.79-23.56c-10.03-11.37-18.26-24.19-24.43-38.03l-19.26-43.23
		l-7.39-16.58c-4.26-9.57-10.6-17.7-18.3-24"/>
	<polyline style="fill:none;stroke:#333333;stroke-width:8;stroke-linejoin:round;stroke-miterlimit:10;" points="262.73,316.021
		256.73,348.381 235.56,348.381 214.39,348.381 208.39,316.021 	"/>

		<line style="fill:none;stroke:#333333;stroke-width:8;stroke-linejoin:round;stroke-miterlimit:10;" x1="235.56" y1="348.381" x2="235.56" y2="263.701"/>
	<path style="fill:none;stroke:#333333;stroke-width:12;stroke-linejoin:round;stroke-miterlimit:10;" d="M148.78,357.091
		c23.02,20.62,53.44,33.15,86.78,33.15s63.76-12.53,86.78-33.15"/>
	<path style="fill:none;stroke:#333333;stroke-width:8;stroke-linecap:round;stroke-linejoin:round;stroke-miterlimit:10;" d="
		M187.24,195.591h-14c-7.73,0-14-6.27-14-14c0-3.87,1.57-7.37,4.1-9.9c2.54-2.54,6.04-4.1,9.9-4.1s7.36,1.56,9.9,4.1
		c2.53,2.53,4.1,6.03,4.1,9.9V195.591z"/>
	<path style="fill:none;stroke:#333333;stroke-width:8;stroke-linecap:round;stroke-linejoin:round;stroke-miterlimit:10;" d="
		M283.88,195.591h14c7.73,0,14-6.27,14-14c0-3.87-1.57-7.37-4.1-9.9c-2.54-2.54-6.04-4.1-9.9-4.1c-3.86,0-7.36,1.56-9.9,4.1
		c-2.53,2.53-4.1,6.03-4.1,9.9V195.591z"/>
	<path style="fill:none;stroke:#333333;stroke-width:8;stroke-linecap:round;stroke-linejoin:round;stroke-miterlimit:10;" d="
		M172,234.591c0,0-65.66-7.46-135.1,27.88c-10.95,5.58-22,12.22-32.9,20.12"/>
	<path style="fill:none;stroke:#333333;stroke-width:8;stroke-linecap:round;stroke-linejoin:round;stroke-miterlimit:10;" d="
		M172,262.871c0,0-70.2,1.2-136.26,49.4c-8.13,5.93-16.21,12.58-24.08,20.02"/>
	<path style="fill:none;stroke:#333333;stroke-width:8;stroke-linecap:round;stroke-linejoin:round;stroke-miterlimit:10;" d="
		M172,293.491c0,0-55.06,13.2-105.44,60.32c-12.63,11.81-24.97,25.76-36.07,42.16"/>
	<path style="fill:none;stroke:#333333;stroke-width:8;stroke-linecap:round;stroke-linejoin:round;stroke-miterlimit:10;" d="
		M299.12,234.591c0,0,65.66-7.46,135.1,27.88c10.95,5.58,22,12.22,32.9,20.12"/>
	<path style="fill:none;stroke:#333333;stroke-width:8;stroke-linecap:round;stroke-linejoin:round;stroke-miterlimit:10;" d="
		M299.12,262.871c0,0,70.2,1.2,136.26,49.4c8.13,5.93,16.21,12.58,24.08,20.02"/>
	<path style="fill:none;stroke:#333333;stroke-width:8;stroke-linecap:round;stroke-linejoin:round;stroke-miterlimit:10;" d="
		M299.12,293.491c0,0,55.06,13.2,105.44,60.32c12.63,11.81,24.97,25.76,36.07,42.16"/>
	<path style="fill:none;stroke:#333333;stroke-width:8;stroke-linecap:round;stroke-linejoin:round;stroke-miterlimit:10;" d="
		M217.6,213.021c10.84-7.27,25.08-7.27,35.92,0"/>
</g>
<g>
</g>
<g>
</g>
<g>
</g>
<g>
</g>
<g>
</g>
<g>
</g>
<g>
</g>
<g>
</g>
<g>
</g>
<g>
</g>
<g>
</g>
<g>
</g>
<g>
</g>
<g>
</g>
<g>
</g>
</svg>
