<?xml version="1.0" encoding="iso-8859-1"?>
<!-- Generator: Adobe Illustrator 19.0.0, SVG Export Plug-In . SVG Version: 6.00 Build 0)  -->
<svg version="1.1" id="Layer_1" xmlns="http://www.w3.org/2000/svg" xmlns:xlink="http://www.w3.org/1999/xlink" x="0px" y="0px"
	 viewBox="0 0 512 512" style="enable-background:new 0 0 512 512;" xml:space="preserve">
<polygon style="fill:#CCCCCC;" points="302.018,502.802 209.966,502.802 217.674,470.696 225.12,439.723 286.877,439.723 
	294.31,470.696 "/>
<polygon style="fill:#999999;" points="294.31,470.696 217.674,470.696 225.12,439.723 254.398,407.83 286.877,439.723 "/>
<path style="fill:#CCCCCC;" d="M501.465,108.803v298.432c0,17.941-14.546,32.487-32.487,32.487H43.018
	c-17.941,0-32.487-14.546-32.487-32.487V108.803c0-17.941,14.546-32.487,32.487-32.487h425.961
	C486.92,76.316,501.465,90.862,501.465,108.803z"/>
<path style="fill:#E6E6E6;" d="M501.465,108.804v298.432c0,17.941-14.546,32.487-32.487,32.487H208.001L309.893,76.317h159.086
	C486.92,76.317,501.465,90.863,501.465,108.804z"/>
<rect x="10.531" y="120.881" style="fill:#9BD7F4;" width="490.934" height="274.273"/>
<polygon style="fill:#C8EDFC;" points="501.465,120.883 501.465,395.156 220.498,395.156 297.396,120.883 "/>
<g>
	<rect x="233.196" y="350.48" style="fill:#F94B54;" width="160.194" height="44.674"/>
	<rect x="202.996" y="219.449" style="fill:#F94B54;" width="155.19" height="44.674"/>
</g>
<g>
	<rect x="143.574" y="42.54" style="fill:#F9C573;" width="166.972" height="42.446"/>
	<rect x="70.268" y="42.54" style="fill:#F9C573;" width="30.867" height="42.446"/>
	<rect x="101.128" y="42.54" style="fill:#F9C573;" width="42.434" height="42.446"/>
	<rect x="101.128" y="8.671" style="fill:#F9C573;" width="42.434" height="33.869"/>
	<rect x="101.128" y="84.987" style="fill:#F9C573;" width="42.434" height="310.167"/>
</g>
<path d="M10.535,158.179c4.934,0,8.935-4,8.935-8.935v-40.171c0-12.993,10.566-23.564,23.552-23.564c4.934,0,8.935-4,8.935-8.935
	s-4-8.935-8.935-8.935c-22.84,0-41.421,18.588-41.421,41.433v40.171C1.6,154.179,5.6,158.179,10.535,158.179z"/>
<path d="M468.982,67.641H340.124c-4.934,0-8.935,4-8.935,8.935c0,4.934,4,8.935,8.935,8.935h128.859
	c12.986,0,23.552,10.572,23.552,23.564V374.4c0,4.934,4,8.935,8.935,8.935s8.935-4,8.935-8.935V109.074
	C510.404,86.227,491.822,67.641,468.982,67.641z"/>
<path d="M501.467,398.561c-4.934,0-8.935,4-8.935,8.935c0,12.988-10.567,23.553-23.553,23.553H43.018
	c-12.988,0-23.553-10.567-23.553-23.553V183.797c0-4.934-4-8.935-8.935-8.935s-8.935,4-8.935,8.935v223.699
	c0,22.841,18.583,41.423,41.423,41.423h170.768l-10.854,45.212h-28.336c-4.934,0-8.935,4-8.935,8.935s4,8.935,8.935,8.935h35.379
	h92.045h35.38c4.934,0,8.935-4,8.935-8.935s-4-8.935-8.935-8.935h-28.336l-10.854-45.212h170.768
	c22.841,0,41.423-18.583,41.423-41.423C510.401,402.561,506.401,398.561,501.467,398.561z M290.686,494.13h-69.378l10.854-45.212
	h47.669L290.686,494.13z"/>
<path d="M261.501,121.154c0-4.934-4-8.935-8.935-8.935h-83.982c-4.934,0-8.935,4-8.935,8.935s4,8.935,8.935,8.935h83.982
	C257.502,130.089,261.501,126.088,261.501,121.154z"/>
<path d="M300.217,121.154c0,4.934,4,8.935,8.935,8.935h162.142c4.934,0,8.935-4,8.935-8.935s-4-8.935-8.935-8.935H309.152
	C304.217,112.219,300.217,116.22,300.217,121.154z"/>
<path d="M40.698,130.089h30.205c4.934,0,8.935-4,8.935-8.935s-4-8.935-8.935-8.935H40.698c-4.934,0-8.935,4-8.935,8.935
	S35.764,130.089,40.698,130.089z"/>
<path d="M70.268,94.184h21.932v175.24c0,4.934,4,8.935,8.935,8.935c4.934,0,8.935-4,8.935-8.935V94.184h24.565v292.297h-24.565
	v-82.509c0-4.934-4-8.935-8.935-8.935c-4.934,0-8.935,4-8.935,8.935v82.509H40.698c-4.934,0-8.935,4-8.935,8.935
	s4,8.935,8.935,8.935h430.6c4.934,0,8.935-4,8.935-8.935s-4-8.935-8.935-8.935h-68.98v-35.739c0-4.934-4-8.935-8.935-8.935h-26.59
	c-4.934,0-8.935,4-8.935,8.935s4,8.935,8.935,8.935h17.655v26.804H242.124v-26.804h90.122c4.934,0,8.935-4,8.935-8.935
	s-4-8.935-8.935-8.935H233.19c-4.934,0-8.935,4-8.935,8.935v35.739h-71.752V94.184h118.24v72.008l-51.437,44.584h-16.317
	c-4.934,0-8.935,4-8.935,8.935v44.674c0,4.934,4,8.935,8.935,8.935H358.18c4.934,0,8.935-4,8.935-8.935v-44.674
	c0-4.934-4-8.935-8.935-8.935h-16.396l-53.171-44.669V94.184h21.927c4.934,0,8.935-4,8.935-8.935V42.803
	c0-4.934-4-8.935-8.935-8.935H152.502V8.935c0-4.934-4-8.935-8.935-8.935h-42.434c-4.934,0-8.935,4-8.935,8.935v24.934H70.266
	c-4.934,0-8.935,4-8.935,8.935v42.446C61.333,90.184,65.333,94.184,70.268,94.184z M349.246,255.45H211.925v-26.804h137.321V255.45z
	 M246.589,210.776l33.179-28.759l34.234,28.759H246.589z M110.069,76.315V51.738h24.565v24.576H110.069z M301.606,51.738v24.576
	H152.503V51.738H301.606z M110.069,17.869h24.565v15.999h-24.565V17.869z M79.202,51.738h12.997v24.576H79.202V51.738z"/>
<g>
</g>
<g>
</g>
<g>
</g>
<g>
</g>
<g>
</g>
<g>
</g>
<g>
</g>
<g>
</g>
<g>
</g>
<g>
</g>
<g>
</g>
<g>
</g>
<g>
</g>
<g>
</g>
<g>
</g>
</svg>
