<?xml version="1.0" encoding="iso-8859-1"?>
<!-- Generator: Adobe Illustrator 19.0.0, SVG Export Plug-In . SVG Version: 6.00 Build 0)  -->
<svg version="1.1" id="Layer_1" xmlns="http://www.w3.org/2000/svg" xmlns:xlink="http://www.w3.org/1999/xlink" x="0px" y="0px"
	 viewBox="0 0 511.999 511.999" style="enable-background:new 0 0 511.999 511.999;" xml:space="preserve">
<path style="fill:#A4A9AD;" d="M411.678,352.208c0-3.586-2.935-6.523-6.523-6.523H125.567c-3.587,0-6.523,2.936-6.523,6.523v132.867
	c0,3.586,2.935,6.523,6.523,6.523h279.59c3.587,0,6.523-2.936,6.523-6.523V352.208H411.678z"/>
<rect x="149.041" y="345.688" style="opacity:0.2;enable-background:new    ;" width="232.64" height="133.659"/>
<g>
	<path style="fill:#00B3E3;" d="M149.936,162.683c-17.92,0-34.25,6.812-46.542,17.984c-6.538-2.711-13.702-4.215-21.221-4.215
		c-28.483,0-51.949,21.479-55.086,49.122c-0.236,2.074-0.702,6.32,5.277,6.32c5.35,0,150.642,0,181.184,0
		c3.595,0,5.487-4.591,5.266-6.841C215.378,190.04,185.853,162.683,149.936,162.683z"/>
	<path style="fill:#00B3E3;" d="M362.063,16.919c17.92,0,34.25,6.812,46.542,17.984c6.538-2.711,13.702-4.215,21.221-4.215
		c28.483,0,51.949,21.479,55.086,49.122c0.236,2.074,0.702,6.32-5.277,6.32c-5.35,0-150.642,0-181.184,0
		c-3.595,0-5.487-4.591-5.266-6.841C296.621,44.274,326.146,16.919,362.063,16.919z"/>
</g>
<path style="fill:#333E48;" d="M317.506,85.56c0-3.586-2.935-6.523-6.523-6.523h-85.312c-3.587,0-6.523,2.936-6.523,6.523v18.534
	c0,3.586,2.935,6.523,6.523,6.523h85.312c3.587,0,6.523-2.936,6.523-6.523V85.56z"/>
<rect x="219.148" y="97.002" style="opacity:0.2;enable-background:new    ;" width="98.361" height="13.616"/>
<path style="fill:#A4A9AD;" d="M338.744,113.765c0-3.589-2.935-6.523-6.523-6.523H198.512c-3.587,0-6.523,2.934-6.523,6.523v141.718
	c0,3.586,2.935,6.523,6.523,6.523H332.22c3.587,0,6.523-2.936,6.523-6.523V113.765H338.744z"/>
<rect x="191.993" y="236.836" style="opacity:0.2;enable-background:new    ;" width="146.759" height="25.166"/>
<path style="fill:#D1D3D3;" d="M363.876,479.347V260.209c0-3.586-2.935-6.523-6.523-6.523H173.379c-3.587,0-6.523,2.936-6.523,6.523
	v219.138H363.876z"/>
<rect x="227.856" y="398.553" style="fill:#00B3E3;" width="75.021" height="80.783"/>
<rect x="257.208" y="398.553" style="opacity:0.1;enable-background:new    ;" width="16.307" height="80.783"/>
<path style="fill:#333E48;" d="M476.386,499.456c0,2.414-1.974,4.391-4.391,4.391H58.737c-2.416,0-4.391-1.976-4.391-4.391v-15.717
	c0-2.417,1.975-4.393,4.391-4.393h413.257c2.417,0,4.391,1.976,4.391,4.393v15.717H476.386z"/>
<rect x="166.859" y="304.052" style="opacity:0.1;enable-background:new    ;" width="197.015" height="16.307"/>
<rect x="166.859" y="358.363" style="opacity:0.1;enable-background:new    ;" width="197.015" height="16.307"/>
<rect x="191.993" y="185.557" style="opacity:0.1;enable-background:new    ;" width="146.759" height="16.307"/>
<rect x="191.993" y="144.563" style="opacity:0.1;enable-background:new    ;" width="146.759" height="16.307"/>
<path style="fill:#D68231;" d="M196.879,479.347v-23.999c0-2.99-2.446-5.435-5.436-5.435H91.43c-2.99,0-5.436,2.446-5.436,5.435
	v23.999H196.879z"/>
<path style="fill:#218649;" d="M181.66,449.911c0-22.216-18.008-40.223-40.223-40.223s-40.223,18.007-40.223,40.223H181.66z"/>
<path style="opacity:0.2;enable-background:new    ;" d="M180.589,440.709h-78.305c-0.692,2.958-1.07,6.035-1.07,9.202h80.446
	C181.66,446.743,181.281,443.667,180.589,440.709z"/>
<path style="fill:#D68231;" d="M333.846,479.347v-23.999c0-2.99,2.446-5.435,5.436-5.435h100.013c2.99,0,5.436,2.446,5.436,5.435
	v23.999H333.846z"/>
<path style="fill:#218649;" d="M349.066,449.911c0-22.216,18.008-40.223,40.223-40.223s40.223,18.007,40.223,40.223H349.066z"/>
<path style="opacity:0.2;enable-background:new    ;" d="M350.135,440.709h78.305c0.692,2.958,1.07,6.035,1.07,9.202h-80.446
	C349.066,446.743,349.443,443.667,350.135,440.709z"/>
<path style="fill:#1E252B;" d="M493.012,78.889c-3.645-32.128-30.81-56.355-63.187-56.355c-6.702,0-13.263,1.033-19.565,3.074
	c-13.665-10.896-30.594-16.844-48.198-16.844c-19.332,0-37.839,7.168-52.113,20.183c-12.266,11.183-20.522,25.863-23.738,41.936
	h-9.733V8.153c0-4.504-3.65-8.153-8.153-8.153s-8.153,3.649-8.153,8.153v62.731h-34.501c-8.092,0-14.676,6.583-14.676,14.676v13.529
	h-12.482c-8.092,0-14.676,6.583-14.676,14.676v48.558c-10.469-5.125-21.964-7.793-33.9-7.793c-17.603,0-34.532,5.949-48.198,16.844
	c-6.302-2.042-12.863-3.074-19.566-3.074c-32.377,0-59.542,24.227-63.187,56.354c-0.219,1.924-0.799,7.035,2.911,11.191
	c1.712,1.918,4.918,4.204,10.467,4.204h151.472v5.484H173.38c-8.092,0-14.676,6.583-14.676,14.676v77.324h-33.136
	c-8.092,0-14.676,6.583-14.676,14.676v60.223c-8.872,7.243-15.125,17.569-17.131,29.327H91.43c-7.493,0-13.589,6.095-13.589,13.589
	v15.846H58.737c-6.917,0-12.544,5.629-12.544,12.546v15.716c0,6.916,5.627,12.544,12.544,12.544h413.257
	c6.917,0,12.544-5.628,12.544-12.544v-15.716c0-6.917-5.627-12.546-12.544-12.546h-19.111v-15.846
	c0-7.493-6.095-13.589-13.589-13.589h-2.332c-2.006-11.758-8.259-22.085-17.132-29.328v-60.222c0-8.092-6.583-14.676-14.676-14.676
	h-33.127v-77.324c0-8.092-6.583-14.676-14.676-14.676h-10.457V113.765c0-8.092-6.583-14.676-14.676-14.676h-6.561v-4.807h153.975
	c5.549,0,8.754-2.287,10.467-4.204C493.811,85.922,493.231,80.812,493.012,78.889z M227.302,87.191h82.051v11.898h-82.051V87.191z
	 M35.582,223.741c3.887-22.499,23.448-39.136,46.591-39.136c6.261,0,12.349,1.209,18.097,3.593c2.918,1.21,6.271,0.626,8.607-1.498
	c11.255-10.23,25.836-15.864,41.058-15.864c12.228,0,23.864,3.549,33.9,10.279v42.626L35.582,223.741L35.582,223.741z
	 M127.198,353.839h31.505v50.894c-5.367-2.058-11.185-3.197-17.268-3.197c-4.954,0-9.735,0.751-14.239,2.142v-49.838H127.198z
	 M141.437,417.842c14.866,0,27.399,10.169,31.016,23.916h-62.032C114.036,428.012,126.57,417.842,141.437,417.842z M94.148,458.065
	h94.578v13.128H94.148C94.148,471.192,94.148,458.065,94.148,458.065z M468.233,487.5v8.193H62.499V487.5H468.233z M236.005,471.193
	v-64.481h58.714v64.481H236.005z M372.03,353.839h31.497v49.838c-4.504-1.389-9.284-2.142-14.238-2.142
	c-6.079,0-11.894,1.138-17.259,3.194L372.03,353.839L372.03,353.839z M389.288,417.842c14.866,0,27.399,10.169,31.016,23.916
	h-62.031C361.889,428.012,374.421,417.842,389.288,417.842z M436.577,458.065v13.128H342v-13.128H436.577z M355.723,261.838v153.286
	c-7.264,7.01-12.341,16.262-14.109,26.634h-2.332c-7.493,0-13.589,6.095-13.589,13.589v15.846h-14.667v-72.635
	c0-4.504-3.651-8.153-8.153-8.153h-75.021c-4.503,0-8.153,3.649-8.153,8.153v72.635h-14.666v-15.846
	c0-7.493-6.095-13.589-13.589-13.589h-2.332c-1.768-10.368-6.842-19.617-14.102-26.626V261.838H355.723z M330.59,115.396v130.136
	H200.143V115.396H330.59z M323.524,77.977c-2.575-4.242-7.225-7.091-12.541-7.091h-8.066c6.774-26.672,30.753-45.814,59.145-45.814
	c15.222,0,29.803,5.634,41.058,15.864c2.336,2.124,5.69,2.708,8.608,1.498c5.749-2.383,11.837-3.593,18.097-3.593
	c23.142,0,42.701,16.638,46.591,39.136C476.415,77.977,323.524,77.977,323.524,77.977z"/>
<g>
</g>
<g>
</g>
<g>
</g>
<g>
</g>
<g>
</g>
<g>
</g>
<g>
</g>
<g>
</g>
<g>
</g>
<g>
</g>
<g>
</g>
<g>
</g>
<g>
</g>
<g>
</g>
<g>
</g>
</svg>
