<?xml version="1.0" encoding="iso-8859-1"?>
<!-- Generator: Adobe Illustrator 19.0.0, SVG Export Plug-In . SVG Version: 6.00 Build 0)  -->
<svg version="1.1" id="Layer_1" xmlns="http://www.w3.org/2000/svg" xmlns:xlink="http://www.w3.org/1999/xlink" x="0px" y="0px"
	 viewBox="0 0 512 512" style="enable-background:new 0 0 512 512;" xml:space="preserve">
<g>
	<rect y="411.429" style="fill:#C8DA2E;" width="512" height="99.265"/>
	<polygon style="fill:#C8DA2E;" points="397.061,280.816 397.061,239.02 397.061,144.98 428.408,144.98 491.102,144.98 
		491.102,280.816 	"/>
</g>
<polygon style="fill:#7AC943;" points="397.061,144.98 397.061,239.02 339.592,239.02 339.592,124.082 313.469,124.082 
	313.469,9.143 428.408,9.143 428.408,144.98 "/>
<g>
	<polygon style="fill:#C8DA2E;" points="203.755,270.367 203.755,124.082 313.469,124.082 339.592,124.082 339.592,239.02 
		339.592,270.367 	"/>
	<rect x="20.898" y="87.51" style="fill:#C8DA2E;" width="57.469" height="167.184"/>
</g>
<polygon style="fill:#7AC943;" points="203.755,270.367 203.755,296.49 78.367,296.49 78.367,254.694 78.367,87.51 78.367,56.163 
	203.755,56.163 203.755,124.082 "/>
<path d="M451.918,403.809V288.653h47.02v-151.51h-62.694V1.306H305.633v114.939h-94.041V48.327H70.531v31.347H13.061v182.857h57.469
	v141.279H0v15.673h512v-15.673H451.918z M436.245,403.809h-57.469V246.857h10.449v41.796h47.02V403.809z M211.592,278.204h31.347
	v125.605h-94.041v-99.483h62.694V278.204z M258.612,278.204h88.816v-31.347h15.673v156.952h-104.49V278.204z M483.265,272.98
	h-31.347V192h-15.673v80.98h-31.347V152.816h78.367V272.98z M321.306,16.98h99.265v120.163h-31.347v94.041h-10.449V77.061h-15.673
	v154.122h-15.673V116.245h-26.122V16.98z M331.755,131.918v130.612h-73.143V160.653h-15.673v101.878h-31.347V131.918H331.755z
	 M86.204,64h109.714v224.653h-47.02V129.306h-15.673v159.347h-47.02V64z M28.735,246.857V95.347h41.796v151.51H28.735z
	 M86.204,304.327h47.02v99.483h-47.02V304.327z"/>
<rect x="26.122" y="445.388" width="62.694" height="15.673"/>
<rect x="120.163" y="476.735" width="62.694" height="15.673"/>
<rect x="235.102" y="445.388" width="62.694" height="15.673"/>
<rect x="339.592" y="476.735" width="62.694" height="15.673"/>
<rect x="423.184" y="445.388" width="62.694" height="15.673"/>
<g>
</g>
<g>
</g>
<g>
</g>
<g>
</g>
<g>
</g>
<g>
</g>
<g>
</g>
<g>
</g>
<g>
</g>
<g>
</g>
<g>
</g>
<g>
</g>
<g>
</g>
<g>
</g>
<g>
</g>
</svg>
